<svg width="28" height="63" viewBox="0 0 28 63" fill="none" xmlns="http://www.w3.org/2000/svg">
<path d="M1.99985 0.999999C1.99985 0.447714 1.55213 -1.09051e-06 0.999846 -1.11465e-06C0.447561 -1.13879e-06 -0.000154471 0.447714 -0.000154495 0.999999L1.99985 0.999999ZM27.2071 56.2071C27.5976 55.8166 27.5976 55.1834 27.2071 54.7929L20.8431 48.4289C20.4526 48.0384 19.8195 48.0384 19.4289 48.4289C19.0384 48.8195 19.0384 49.4526 19.4289 49.8431L25.0858 55.5L19.4289 61.1569C19.0384 61.5474 19.0384 62.1805 19.4289 62.5711C19.8195 62.9616 20.4526 62.9616 20.8431 62.5711L27.2071 56.2071ZM-0.000154495 0.999999L-0.00015644 45.5L1.99984 45.5L1.99985 0.999999L-0.000154495 0.999999ZM10.9998 56.5L26.5 56.5L26.5 54.5L10.9998 54.5L10.9998 56.5ZM-0.00015644 45.5C-0.000156706 51.5751 4.92471 56.5 10.9998 56.5L10.9998 54.5C6.02928 54.5 1.99984 50.4706 1.99984 45.5L-0.00015644 45.5Z" fill="white"/>
</svg>
