<?xml version="1.0" encoding="UTF-8"?><svg id="Layer_1" xmlns="http://www.w3.org/2000/svg" viewBox="0 0 998.23 788.07"><defs><style>.cls-1{fill:#5bb225;}.cls-2{fill:#fbc911;}.cls-3{fill:#fd0101;}</style></defs><path class="cls-3" d="m837.56,348.45c0-186.92-151.53-338.45-338.45-338.45S160.67,161.53,160.67,348.45c0,143.97,676.89,143.97,676.89,0Z"/><path d="m499.12,466.43c-89.56,0-173.16-9.72-235.41-27.37-34.16-9.69-61.02-21.56-79.84-35.28-22.02-16.06-33.19-34.67-33.19-55.32,0-47.04,9.21-92.67,27.39-135.64,17.55-41.49,42.67-78.76,74.67-110.76,32-32,69.26-57.12,110.75-74.67C406.44,9.21,452.07,0,499.11,0s92.67,9.21,135.63,27.39c41.49,17.55,78.76,42.67,110.76,74.67,32,32,57.12,69.26,74.67,110.76,18.17,42.96,27.39,88.6,27.39,135.64,0,20.65-11.17,39.26-33.19,55.32-18.82,13.73-45.68,25.6-79.84,35.28-62.25,17.65-145.85,27.37-235.41,27.37Zm0-446.43c-181.1,0-328.44,147.34-328.44,328.45,0,28.01,34.98,53.35,98.49,71.36,60.52,17.16,142.19,26.62,229.95,26.62s169.43-9.45,229.95-26.62c63.51-18.01,98.49-43.36,98.49-71.36,0-181.11-147.34-328.45-328.45-328.45Z"/><g><path class="cls-1" d="m204.35,282.88l-126.68,148.39v250.93h253.35v-250.93l-126.67-148.39h0Zm33.07,295.59h-66.17v-66.17h66.17v66.17Z"/><path class="cls-2" d="m498.66,283.02l-126.68,148.38v250.93h253.37v-250.93l-126.68-148.38h0Zm33.09,295.59h-66.17v-66.17h66.17v66.17Z"/><path class="cls-1" d="m792.99,283.02l-126.69,148.38v250.93h253.35v-250.93l-126.67-148.38h0Zm33.07,295.59h-66.17v-66.17h66.17v66.17Z"/></g><path d="m786.96,227.11l-134.19,157.17c-3.41,3.99-9.57,3.99-12.98,0l-134.19-157.17c-3.41-3.99-9.57-3.99-12.98,0l-134.13,157.1c-3.41,3.99-9.57,3.99-12.98,0l-134.22-157.24c-3.41-3.99-9.57-3.99-12.98,0L39.2,413.34c-1.32,1.54-2.04,3.51-2.04,5.54v295.31c0,4.71,3.82,8.53,8.53,8.53h285.78v.12h621.07c4.71,0,8.53-3.82,8.53-8.53v-295.31c0-2.03-.72-4-2.04-5.54l-159.09-186.36c-3.41-3.99-9.57-3.99-12.98,0h0Zm-455.48,454.67H78.12v-250.93l126.68-148.39,126.67,148.39v250.93h.01Zm294.33.12h-253.37v-250.93l126.68-148.38,126.68,148.38v250.93h.01Zm294.31,0h-253.35v-250.93l126.69-148.38,126.67,148.38v250.93h-.01Z"/><path d="m841.22,471.05h-95.56c-14.51,0-26.27,11.76-26.27,26.27v95.56c0,14.51,11.76,26.27,26.27,26.27h95.56c14.51,0,26.27-11.76,26.27-26.27v-95.56c0-14.51-11.76-26.27-26.27-26.27h0Zm-14.69,107.13h-66.17v-66.17h66.17v66.17Z"/><path d="m546.89,471.05h-95.54c-14.51,0-26.27,11.76-26.27,26.27v95.56c0,14.51,11.76,26.27,26.27,26.27h95.54c14.51,0,26.28-11.76,26.28-26.27v-95.56c0-14.51-11.78-26.27-26.28-26.27h0Zm-14.68,107.13h-66.17v-66.17h66.17v66.17Z"/><path d="m252.57,470.91h-95.56c-14.51,0-26.27,11.76-26.27,26.28v95.54c0,14.51,11.76,26.27,26.27,26.27h95.56c14.51,0,26.27-11.76,26.27-26.27v-95.54c0-14.52-11.76-26.28-26.27-26.28h0Zm-14.69,107.13h-66.17v-66.17h66.17v66.17Z"/><path d="m988.23,788.07h-.02l-978.23-1.47C4.46,786.59,0,782.11,0,776.58c0-5.52,4.48-9.99,10-9.99h.02l978.23,1.47c5.52,0,9.99,4.49,9.99,10.01,0,5.52-4.48,9.99-10,9.99Z"/></svg>