<?xml version="1.0" encoding="utf-8"?>
<!-- Generator: Adobe Illustrator 27.1.1, SVG Export Plug-In . SVG Version: 6.00 Build 0)  -->
<svg version="1.1" id="Layer_1" xmlns="http://www.w3.org/2000/svg" xmlns:xlink="http://www.w3.org/1999/xlink" x="0px" y="0px"
	 viewBox="0 0 2500 1298.4" style="enable-background:new 0 0 2500 1298.4;" xml:space="preserve">
<style type="text/css">
	.st0{fill-rule:evenodd;clip-rule:evenodd;fill:#00678C;}
	.st1{fill-rule:evenodd;clip-rule:evenodd;fill:#CE8B2C;}
</style>
<path class="st0" d="M0,1182.9h83.1V855.4L211.4,1141c15.2,34.3,35.5,46.3,76.2,46.3c40.6,0,60.9-12.1,76.2-46.3l128.2-285.6v327.5
	h82.5V856.1c0-31.7-12.7-47-38.7-55.2c-62.8-19.7-105.4-2.5-124.4,40L285.6,1122L163.8,840.8c-18.4-42.5-61.6-59.7-124.4-40
	C12.7,809.1,0,824.3,0,856.1L0,1182.9L0,1182.9L0,1182.9z M643.6,916.3h82.5v180.3c-0.6,10.1,3.2,33,48.9,33.6
	c22.8,0.6,178.3,0,179.6,0V915.7h83.1c0.6,0,0,292.6,0,293.9c0.6,72.3-89.5,87.6-130.7,88.8H645.5v-55.8c0,0,260.9,0.6,261.5,0
	c53.3-5.1,47-31.7,47-40.6v-21.6H778.1c-81.9-1.3-133.9-36.8-134.6-78.1C643.6,1098.5,645.5,918.3,643.6,916.3L643.6,916.3z
	 M2426.4,708.8c-50.8-1.3-89.5,3.2-123.1,17.8c-9.5,3.8-24.1,3.8-26,15.9c5.1,5,6.3,13.3,10.1,20.3c8.3,12.7,21.6,29.8,33.6,38.7
	c12.7,10.2,26,20.3,40,29.2c25.4,15.2,53.3,23.5,76.8,38.7c14.6,8.9,28.6,20.3,42.5,30.5c6.3,5.1,11.4,12.7,19.7,15.9v-1.3
	c-4.4-5.7-5.7-14-9.5-20.3l-19-19c-18.4-24.1-41.9-45.7-66.7-63.5c-19.7-14-64.1-33.6-72.3-56.5c-0.6-0.6-1.3-0.6-1.3-1.3
	c14-1.9,30.5-7,43.2-10.2c21.6-5.7,41.3-4.4,63.5-10.1c10.2-3.2,20.3-5.7,30.5-8.9v-5.7c-11.4-11.4-19-27.3-31.7-37.4
	c-32.4-27.9-67.9-55.2-104.1-78.1c-20.3-13.3-45.1-21.6-66.6-32.4c-7-3.2-19.7-5.1-24.8-11.4c-11.5-14-17.1-32.4-26-48.9
	c-18.6-36.2-36-73-52-110.4c-10.8-24.8-18.4-49.5-31.7-72.4c-66-107.9-136.5-173.3-246.3-237.4c-23.5-13.3-51.4-19-81.2-26
	c-15.9-1.3-31.7-1.9-47.6-3.2c-9.5-3.8-19.7-15.9-29.2-21.6c-36.2-22.8-129.5-73-156.1-7c-17.1,41.3,25.4,81.9,40.6,102.8
	c10.8,14.6,24.1,31.1,31.8,47.6c5,10.8,5.7,21.6,10.1,33c10.8,28.6,19.7,59.7,33,85.7c7,13.3,14.6,27.3,23.5,39.4
	c5.1,7,14.6,10.2,15.9,21.6c-8.9,12.7-9.5,31.7-14.6,47.6c-22.2,71.7-14,159.9,19,213.2c10.2,15.9,33.6,50.8,66.7,37.5
	c28.6-12.1,22.2-47.6,30.5-80c1.9-7,0.6-12.1,4.4-17.1v1.3c8.3,17.8,17.1,34.9,26,52c19,31.1,53.3,64.1,82.5,85.7
	c14.6,11.4,26.6,31.1,46.3,37.4v-1.3h-1.9c-3.8-5.7-9.5-8.2-14-12.7c-11.4-11.4-24.1-25.4-33.6-38.1c-26-35.5-49.5-74.9-71.1-115.5
	c-10.2-19.7-19.1-41.3-27.3-60.9c-3.2-7.6-3.2-19-10.2-23.5c-9.5,14.6-22.8,26.7-30.5,43.8c-11.4,27.3-13.3,60.9-17.1,95.2
	c-2.6,1.3-1.9,0.6-3.2,1.9c-20.3-5.1-27.3-26-34.9-43.8c-18.4-45.1-22.2-117.4-5.7-169.5c4.4-13.3,24.1-55.2,15.9-67.9
	c-3.8-12.1-15.9-19.7-22.9-29.2c-8.9-11.4-17.1-26.7-23.5-40c-15.2-35.5-22.2-74.9-38.7-110.4c-8.3-17.1-20.9-34.3-31.7-48.9
	c-12.1-17.1-25.4-29.2-34.9-49.5c-3.2-7-7.6-18.4-3.2-26c1.9-5.1,3.8-7,8.9-8.9c8.3-6.3,31.8,2.5,40.6,5.7
	c22.9,10.2,42.5,19,62.2,32.4c9.5,6.3,19.1,18.4,30.5,21.6h12.7c20.3,4.4,43.1,1.3,62.2,7c33.6,10.1,64.1,26,91.4,43.8
	c83.8,52.7,151.7,127.6,198.7,217.1c7.6,14.6,10.8,27.9,17.1,43.2c13.3,31.1,30.5,62.8,43.8,92.7c12.7,30.5,26,60.9,44.4,85.7
	c10.2,13.3,48.2,20.3,65.4,27.3c12.1,5.1,31.7,10.8,43.2,17.8c22.2,12.7,43.1,28.6,64.1,43.2
	C2393.4,679.6,2425.1,695.5,2426.4,708.8L2426.4,708.8z"/>
<path class="st0" d="M1779,157.3c-8.8,0-17.5,1.1-26,3.2v1.3h1.9c5.1,10.2,14,17.1,20.3,26c4.4,10.2,9.5,20.3,14,30.5l1.9-1.9
	c8.9-5.7,12.7-15.9,12.7-31.7c-3.2-3.8-3.8-8.3-7-12.7C1792.3,165.5,1784.7,162.3,1779,157.3L1779,157.3z"/>
<path class="st1" d="M1101.8,1182.9h238c27.9,0,55.2-5.7,76.8-15.9c35.5-16.5,53.3-38.7,53.3-67.9v-60.9c0-23.5-20.3-46.3-59-60.9
	c-21-8.3-46.3-12.1-71.1-12.1h-100.3c-33.6,0-49.5-10.2-53.3-32.4c-0.6-2.5-0.6-5.1-0.6-7.6v-37.5c0-2.5,0-4.4,0.6-7
	c3.8-17.1,12.7-22.2,41.9-24.8c2.5,0,5.7-0.6,8.3-0.6h236.7v-55.2h-232.9c-33.6,0-50.8,2.5-66.6,7c-49.5,15.9-71.1,40-71.1,82.5V938
	c0,37.5,42.5,69.2,113,76.8c8.3,0,15.9,0.6,24.1,0.6h85.7c3.2,0,6.3,0,8.9,0.6c26.7,2.5,37.5,7,45.7,16.5c4.4,5.1,6.4,9.5,6.4,15.2
	v48.2c0,5.7-3.8,13.3-12.1,19.7c-7,6.4-19.1,10.2-34.9,11.4c-3.2,0-5.7,0.6-8.9,0.6h-228.5V1182.9z M1986.5,1086.4
	c0,57.1,41.9,88.8,127.6,95.2c7.6,0.6,15.9,1.3,23.5,1.3h215.8v-55.2h-217.1c-48.9,0-67.3-12.1-67.3-41.3V800.2h-82.5L1986.5,1086.4
	L1986.5,1086.4L1986.5,1086.4z M1522.6,1089.6V892.9c0-50.1,34.9-80.6,104.7-90.1c7-1.3,15.2-1.3,22.2-1.3h157.4
	c7.6,0,14.6,0,22.9,1.3c69.2,9.5,104.7,40,104.7,90.1v196.7c0,40.6-15.2,62.2-49.5,76.2l81.9,73.6h-96.5l-66-59l-66.7,3.8h-88.2
	c-15.2,0-31.1-1.9-48.9-7C1548,1163.2,1522.6,1135.3,1522.6,1089.6L1522.6,1089.6z M1612.1,1084.5c0,3.2,0.6,5.7,1.3,8.9
	c5.1,22.8,26.6,35.5,59,35.5h75.5l-69.2-62.2h96.5l60.3,54c10.8-5.7,18.4-14.6,21-26c0.6-3.2,0.6-5.7,0.6-8.3V897.3
	c0-1.9,0-4.4-0.6-7c-5.1-21.6-26.6-33.6-58.4-33.6h-125.7c-36.8,0-60.3,15.9-60.3,40.6L1612.1,1084.5L1612.1,1084.5L1612.1,1084.5z
	 M2391.5,1182.9h12.1v-45.7h16.5v-9.5H2375v9.5h16.5V1182.9L2391.5,1182.9z M2484.1,1182.9h10.8v-55.2h-16.5l-14.6,38.1l-14.6-38.1
	h-17.1v55.2h11.4V1141l15.9,41.9h8.3l15.9-41.9h0.6L2484.1,1182.9L2484.1,1182.9z"/>
</svg>
